<svg xmlns="http://www.w3.org/2000/svg" width="51.587" height="51.587" viewBox="0 0 51.587 51.587">
  <defs>
    <style>
      .cls-1 {
        fill: #f8f8f8;
      }

      .cls-2 {
        fill: #fff;
      }

      .cls-3, .cls-4, .cls-5 {
        fill: none;
        stroke: #000;
      }

      .cls-3, .cls-4 {
        stroke-width: 2px;
      }

      .cls-4, .cls-5 {
        stroke-linecap: round;
      }

      .cls-4 {
        stroke-linejoin: round;
      }

      .cls-6, .cls-7 {
        stroke: none;
      }

      .cls-7 {
        fill: #000;
      }
    </style>
  </defs>
  <g id="Group_171" data-name="Group 171" transform="translate(0)">
    <rect id="Rectangle_503" data-name="Rectangle 503" class="cls-1" width="51.587" height="51.587" transform="translate(0 0)"/>
    <g id="Group_170" data-name="Group 170" transform="translate(6.392 14.453)">
      <g id="Path_278" data-name="Path 278" class="cls-2" transform="translate(0 4.874)">
        <path class="cls-6" d="M 8.674777984619141 16.04010200500488 C 4.442887783050537 16.04010200500488 0.9999979734420776 12.58331203460693 0.9999979734420776 8.334351539611816 C 0.9999979734420776 7.523490428924561 1.176937818527222 6.301760673522949 1.439846754074097 5.257781982421875 L 8.674777984619141 5.257781982421875 L 16.34955787658691 5.257781982421875 L 16.34955787658691 8.334351539611816 C 16.34955787658691 12.58331203460693 12.90666770935059 16.04010200500488 8.674777984619141 16.04010200500488 Z"/>
        <path class="cls-7" d="M 2.24174690246582 6.257781982421875 C 2.093709945678711 7.016180038452148 1.999998092651367 7.792496681213379 1.999998092651367 8.334351539611816 C 1.999998092651367 12.03191184997559 4.994288444519043 15.04010200500488 8.674777984619141 15.04010200500488 C 12.35526847839355 15.04010200500488 15.34955787658691 12.03191184997559 15.34955787658691 8.334351539611816 L 15.34955787658691 6.257781982421875 L 8.674777984619141 6.257781982421875 L 2.24174690246582 6.257781982421875 M 0.8875770568847656 4.248317718505859 C 0.9208412170410156 4.248317718505859 0.9419174194335938 4.257781982421875 0.9419174194335938 4.257781982421875 C 0.9419174194335938 4.257781982421875 6.102027893066406 4.257781982421875 8.674777984619141 4.257781982421875 C 11.92301750183105 4.257781982421875 17.34955787658691 4.257781982421875 17.34955787658691 4.257781982421875 C 17.34955787658691 4.257781982421875 17.34955787658691 6.786131858825684 17.34955787658691 8.334351539611816 C 17.34955787658691 13.14240169525146 13.46572780609131 17.04010200500488 8.674777984619141 17.04010200500488 C 3.883828163146973 17.04010200500488 -1.9073486328125e-06 13.14240169525146 -1.9073486328125e-06 8.334351539611816 C -1.9073486328125e-06 7.268041610717773 0.2591571807861328 5.749471664428711 0.5622978210449219 4.666332244873047 C 0.6596565246582031 4.302125930786133 0.8082599639892578 4.248317718505859 0.8875770568847656 4.248317718505859 Z"/>
      </g>
      <g id="Path_279" data-name="Path 279" class="cls-2" transform="translate(21.857 4.83)">
        <path class="cls-6" d="M 8.79326057434082 16.08382415771484 C 4.496040344238281 16.08382415771484 1.000000596046448 12.61549472808838 1.000000596046448 8.352344512939453 L 1.000000596046448 5.263724327087402 L 8.79326057434082 5.263724327087402 C 10.90583801269531 5.263724327087402 14.81147289276123 5.186281204223633 16.20616340637207 5.157138347625732 C 16.20755958557129 5.161880016326904 16.20891380310059 5.166687488555908 16.21022987365723 5.171584129333496 L 16.21179962158203 5.177404403686523 L 16.21343040466309 5.183204174041748 C 16.45053100585938 6.024664402008057 16.58652114868164 7.179774284362793 16.58652114868164 8.352344512939453 C 16.58652114868164 12.61549472808838 13.09048080444336 16.08382415771484 8.79326057434082 16.08382415771484 Z"/>
        <path class="cls-7" d="M 15.41133308410645 6.17369270324707 C 13.66397666931152 6.208548545837402 10.6108512878418 6.263724327087402 8.79326057434082 6.263724327087402 L 2.000000953674316 6.263724327087402 L 2.000000953674316 8.352344512939453 C 2.000000953674316 12.06409454345703 5.047440528869629 15.08382415771484 8.79326057434082 15.08382415771484 C 12.53908061981201 15.08382415771484 15.58652114868164 12.06409454345703 15.58652114868164 8.352344512939453 C 15.58652114868164 7.578910827636719 15.52434062957764 6.819992065429688 15.41133308410645 6.17369270324707 M 16.69507026672363 4.146484375 C 16.69507026672363 4.146484375 17.03520965576172 4.388423919677734 17.17595100402832 4.911983489990234 C 17.4797306060791 5.990084648132324 17.58652114868164 7.29405403137207 17.58652114868164 8.352344512939453 C 17.58652114868164 13.17461395263672 13.6496410369873 17.08382415771484 8.79326057434082 17.08382415771484 C 3.936880111694336 17.08382415771484 0 13.17461395263672 0 8.352344512939453 C 0 6.799553871154785 0 4.263723373413086 0 4.263723373413086 C 0 4.263723373413086 5.50066089630127 4.263723373413086 8.79326057434082 4.263723373413086 C 11.40115070343018 4.263723373413086 16.69507026672363 4.146484375 16.69507026672363 4.146484375 Z"/>
      </g>
      <path id="Path_280" data-name="Path 280" class="cls-3" d="M5229.548,8797.045h-5.129" transform="translate(-5207.509 -8783.523)"/>
      <path id="Path_277" data-name="Path 277" class="cls-4" d="M5219.7,8782.724l-9.644,9.605h36.229l-9.812-9.605" transform="translate(-5208.505 -8782.724)"/>
      <path id="Path_281" data-name="Path 281" class="cls-5" d="M5219.978,8799.056a2.408,2.408,0,0,1-1.668,1.942" transform="translate(-5207.492 -8784.119)"/>
      <path id="Path_282" data-name="Path 282" class="cls-5" d="M5219.978,8799.056a2.408,2.408,0,0,1-1.668,1.942" transform="translate(-5186.141 -8784.119)"/>
    </g>
  </g>
</svg>
