<svg xmlns="http://www.w3.org/2000/svg" viewBox="0 0 32.558 26.287"><defs><style>.a,.e{fill:none;}.a,.b,.c{stroke:#c32323;stroke-width:2px;}.b,.c{fill:rgba(255,255,255,0);}.c{stroke-linejoin:round;}.d{stroke:none;}</style></defs><g transform="translate(1.213 1)"><path class="a" d="M6587.107,221.941l3.983-4.322-5.545-10.229-3.507-.12a7.323,7.323,0,0,0-3.409-1.369c-4.131-.024-11.454,5.715-11.265,7.419.192,1.441,3,.24,3,.24s5.025-2.907,5.738-2.785a1.293,1.293,0,0,1,.935.518l10.064,10.794a2.657,2.657,0,0,1-.366,2.434c-.874.931-2.549,0-2.549,0l-4.605-4.663,4.368,4.368s.357,1.783-.534,2.5-2.407,0-2.407,0l-4.636-4.636s2.139,1.961,3.209,3.031a2.1,2.1,0,0,1-.233,3.253c-.979.713-2.53-.4-2.53-.4l-1.6-1.783-11.173-6.284-3.08-1.732,3.777-11.144a6.234,6.234,0,0,0,2.622,1.093c1.061,0,2.934-1.5,4.12-1.467s4.275,0,4.275,0" transform="translate(-6560.966 -205.902)"/><g class="b" transform="translate(0.686 16.372) rotate(-45)"><rect class="d" width="6.295" height="4.694" rx="2.347"/><rect class="e" x="1" y="1" width="4.295" height="2.694" rx="1.347"/></g><g class="c" transform="translate(9.778 21.968) rotate(-45)"><rect class="d" width="6.295" height="4.694" rx="2.347"/><rect class="e" x="1" y="1" width="4.295" height="2.694" rx="1.347"/></g><g class="b" transform="translate(2.989 18.965) rotate(-45)"><rect class="d" width="7.694" height="4.694" rx="2.347"/><rect class="e" x="1" y="1" width="5.694" height="2.694" rx="1.347"/></g><g class="b" transform="translate(5.786 21.064) rotate(-45)"><rect class="d" width="7.694" height="4.694" rx="2.347"/><rect class="e" x="1" y="1" width="5.694" height="2.694" rx="1.347"/></g></g></svg>