<svg xmlns="http://www.w3.org/2000/svg" viewBox="0 0 23.308 23.308"><defs><style>.a{opacity:0.3;}.b{fill:#f8f8f8;}.b,.c{stroke:#000;}.c,.e{fill:none;}.c{stroke-linecap:round;stroke-linejoin:round;}.d{stroke:none;}</style></defs><g class="a"><g class="b" transform="translate(0)"><ellipse class="d" cx="11.654" cy="11.654" rx="11.654" ry="11.654"/><ellipse class="e" cx="11.654" cy="11.654" rx="11.154" ry="11.154"/></g><path class="c" d="M13.728,3a6.306,6.306,0,0,1-1.817.885A2.592,2.592,0,0,0,7.364,5.616v.579A6.167,6.167,0,0,1,2.157,3.574S-.157,8.781,5.05,11.1A6.734,6.734,0,0,1,1,12.252c5.207,2.893,11.571,0,11.571-6.653a2.6,2.6,0,0,0-.046-.48A4.466,4.466,0,0,0,13.728,3Z" transform="translate(4.827 3.614)"/></g></svg>