<svg xmlns="http://www.w3.org/2000/svg" viewBox="0 0 28.308 26.621"><defs><style>.a{fill:none;stroke:#000;stroke-linecap:square;stroke-miterlimit:10;stroke-width:3px;}</style></defs><g transform="translate(1.5 1.5)"><path class="a" d="M23.777,14.28V7.531H3.531A2.531,2.531,0,0,1,1,5V22.716A3.375,3.375,0,0,0,4.374,26.09h19.4V19.341" transform="translate(-1 -2.469)"/><path class="a" d="M29.436,21.062H23.531A2.531,2.531,0,0,1,21,18.531h0A2.531,2.531,0,0,1,23.531,16h5.905Z" transform="translate(-4.128 -4.189)"/><path class="a" d="M18.716,3.687V2H3.531A2.531,2.531,0,0,0,1,4.531H1A2.531,2.531,0,0,0,3.531,7.062" transform="translate(-1 -2)"/></g></svg>