<svg xmlns="http://www.w3.org/2000/svg" viewBox="0 0 23.308 23.308"><defs><style>.a{opacity:0.3;}.b{fill:#f8f8f8;}.b,.c{stroke:#000;}.c,.e{fill:none;}.c{stroke-linecap:round;stroke-linejoin:round;}.d{stroke:none;}</style></defs><g class="a"><g class="b" transform="translate(0 0)"><ellipse class="d" cx="11.654" cy="11.654" rx="11.654" ry="11.654"/><ellipse class="e" cx="11.654" cy="11.654" rx="11.154" ry="11.154"/></g><g transform="translate(4.662 6.992)"><path class="c" d="M14.156,5.478a1.7,1.7,0,0,0-1.185-1.222A43.983,43.983,0,0,0,7.718,4a40.191,40.191,0,0,0-5.253.281A1.7,1.7,0,0,0,1.281,5.5,17.712,17.712,0,0,0,1,8.733a17.712,17.712,0,0,0,.281,3.255,1.7,1.7,0,0,0,1.185,1.173,40.191,40.191,0,0,0,5.253.281,40.191,40.191,0,0,0,5.253-.281,1.7,1.7,0,0,0,1.185-1.222,17.712,17.712,0,0,0,.281-3.207,17.712,17.712,0,0,0-.281-3.255Z" transform="translate(-0.999 -4)"/><path class="c" d="M9.75,12.474l3.512-2-3.512-2Z" transform="translate(-4.405 -5.744)"/></g></g></svg>